<svg width="108" height="133" viewBox="0 0 108 133" fill="none" xmlns="http://www.w3.org/2000/svg">
    <g id="Group 1963">
        <g id="Rectangle 525">
            <g filter="url(#filter0_ii_2852_8130)">
                <path d="M8.59766 19.169C8.59766 12.4483 14.0459 7 20.7667 7H72.7728L99.1978 32.67V113.366C99.1978 120.087 93.7495 125.535 87.0288 125.535H20.7667C14.0459 125.535 8.59766 120.087 8.59766 113.366V19.169Z"
                      fill="url(#paint0_linear_2852_8130)"/>
            </g>
            <path d="M9.09766 19.169C9.09766 12.7244 14.3221 7.5 20.7667 7.5H72.5699L98.6978 32.8814V113.366C98.6978 119.811 93.4734 125.035 87.0288 125.035H20.7667C14.3221 125.035 9.09766 119.811 9.09766 113.366V19.169Z"
                  stroke="url(#paint1_linear_2852_8130)"/>
        </g>
        <g id="Mask group">
            <mask id="mask0_2852_8130" style="mask-type:alpha" maskUnits="userSpaceOnUse" x="69" y="7" width="30"
                  height="42">
                <path id="Vector 235" d="M99 33L72.5 7.5H69V48.5H99V33Z" fill="black"/>
            </mask>
            <g mask="url(#mask0_2852_8130)">
                <g id="Vector 125" opacity="0.5" filter="url(#filter1_f_2852_8130)">
                    <path d="M84.6794 38.7109H99.0645V32.6709L78.6794 13.0409V32.7109C78.6794 36.0246 81.3657 38.7109 84.6794 38.7109Z"
                          fill="#E38515"/>
                </g>
            </g>
        </g>
        <g id="Vector 124" filter="url(#filter2_ii_2852_8130)">
            <path d="M78.6394 32.6699H99.0645L72.6394 6.99988V26.6699C72.6394 29.9836 75.3257 32.6699 78.6394 32.6699Z"
                  fill="#FFE000"/>
        </g>
        <path id="Rectangle 526"
              d="M77.625 1.02866L79.875 3.08599L79.5376 3.45499L81.7876 5.51231L82.125 5.14331L84.375 7.20064L84.0376 7.56963L86.2876 9.62696L86.625 9.25796L88.875 11.3153L88.5376 11.6843L90.7876 13.7416L91.125 13.3726L93.375 15.4299L93.0376 15.7989L95.2876 17.8563L95.625 17.4873L97.875 19.5446L97.5376 19.9136L99.7876 21.9709L100.125 21.6019L102.375 23.6592L102.038 24.0282L104.288 26.0856L104.625 25.7166L106.875 27.7739L106.538 28.1429L107.5 29.0229V30.3418H108V33.4203H107.5V36.4987H108V39.5772H107.5V42.6557H108V45.7342H107.5V48.8127H108V51.8912H107.5V54.9696H108V58.0481H107.5V61.1266H108V64.2051H107.5V67.2836H108V70.362H107.5V73.4405H108V76.519H107.5V79.5975H108V82.676H107.5V85.7544H108V88.8329H107.5V91.9114H108V94.9899H107.5V98.0684H108V101.147H107.5V104.225H108V107.304H107.5V110.382H108V113.461H107.5V115C107.5 115.463 107.482 115.921 107.447 116.375L107.945 116.414C107.871 117.366 107.723 118.298 107.506 119.204L107.02 119.087C106.805 119.987 106.52 120.859 106.172 121.699L106.634 121.89C106.271 122.766 105.841 123.607 105.35 124.406L104.924 124.144C104.443 124.928 103.902 125.67 103.308 126.365L103.688 126.69C103.075 127.407 102.407 128.075 101.69 128.688L101.365 128.308C100.67 128.902 99.9275 129.443 99.1444 129.924L99.4061 130.35C98.6066 130.841 97.7658 131.271 96.8902 131.634L96.6987 131.172C95.8592 131.52 94.9869 131.805 94.0875 132.02L94.2038 132.506C93.2984 132.723 92.3664 132.871 91.4137 132.945L91.3749 132.447C90.9213 132.482 90.4628 132.5 90 132.5H88.5V133H85.5V132.5H82.5V133H79.5V132.5H76.5V133H73.5V132.5H70.5V133H67.5V132.5H64.5V133H61.5V132.5H58.5V133H55.5V132.5H52.5V133H49.5V132.5H46.5V133H43.5V132.5H40.5V133H37.5V132.5H34.5V133H31.5V132.5H28.5V133H25.5V132.5H22.5V133H19.5V132.5H18C17.5372 132.5 17.0787 132.482 16.6251 132.447L16.5863 132.945C15.6335 132.871 14.7016 132.723 13.7962 132.506L13.9125 132.02C13.0131 131.805 12.1408 131.52 11.3013 131.172L11.1098 131.634C10.2342 131.271 9.39341 130.841 8.59393 130.35L8.85558 129.924C8.07247 129.443 7.33004 128.902 6.63471 128.308L6.3098 128.688C5.59309 128.075 4.92507 127.407 4.31236 126.69L4.69241 126.365C4.09798 125.67 3.55713 124.928 3.07623 124.144L2.65016 124.406C2.15921 123.607 1.72897 122.766 1.36585 121.89L1.82771 121.699C1.47962 120.859 1.19499 119.987 0.979817 119.087L0.493541 119.204C0.276921 118.298 0.128716 117.366 0.0546954 116.414L0.553194 116.375C0.517955 115.921 0.5 115.463 0.5 115V113.484H0V110.453H0.5V107.422H0V104.391H0.5V101.359H0V98.3281H0.5V95.2969H0V92.2656H0.5V89.2344H0V86.2031H0.5V83.1719H0V80.1406H0.5V77.1094H0V74.0781H0.5V71.0469H0V68.0156H0.5V64.9844H0V61.9531H0.5V58.9219H0V55.8906H0.5V52.8594H0V49.8281H0.5V46.7969H0V43.7656H0.5V40.7344H0V37.7031H0.5V34.6719H0V31.6406H0.5V28.6094H0V25.5781H0.5V22.5469H0V19.5156H0.5V18C0.5 17.5372 0.517955 17.0787 0.553194 16.6251L0.0546957 16.5863C0.128716 15.6335 0.276921 14.7016 0.493541 13.7962L0.979817 13.9125C1.19499 13.0131 1.47962 12.1408 1.82771 11.3013L1.36585 11.1098C1.72896 10.2342 2.15921 9.39341 2.65016 8.59393L3.07623 8.85558C3.55713 8.07247 4.09798 7.33004 4.69241 6.63471L4.31236 6.30981C4.92507 5.59309 5.59308 4.92507 6.3098 4.31236L6.6347 4.69241C7.33004 4.09798 8.07246 3.55713 8.85557 3.07623L8.59393 2.65016C9.3934 2.15921 10.2342 1.72897 11.1098 1.36585L11.3013 1.82771C12.1408 1.47962 13.0131 1.19499 13.9125 0.979817L13.7962 0.493541C14.7016 0.276921 15.6335 0.128716 16.5863 0.0546955L16.6251 0.553194C17.0787 0.517955 17.5372 0.5 18 0.5H19.4625V0H22.3875V0.5H25.3125V0H28.2375V0.5H31.1625V0H34.0875V0.5H37.0125V0H39.9375V0.5H42.8625V0H45.7875V0.5H48.7125V0H51.6375V0.5H54.5625V0H57.4875V0.5H60.4125V0H63.3375V0.5H66.2625V0H69.1875V0.5H72.1125V0H75.0375V0.5H76.3059L77.2876 1.39766L77.625 1.02866Z"
              stroke="url(#paint2_linear_2852_8130)" stroke-dasharray="3 3"/>
        <g id="Vector" style="mix-blend-mode:soft-light" filter="url(#filter3_di_2852_8130)">
            <path d="M53.5 44.5312C48.9572 44.5312 44.5164 45.8783 40.7393 48.4022C36.9621 50.926 34.0181 54.5132 32.2797 58.7102C30.5412 62.9072 30.0863 67.5255 30.9726 71.981C31.8589 76.4365 34.0464 80.5291 37.2587 83.7414C40.4709 86.9536 44.5635 89.1412 49.019 90.0274C53.4745 90.9137 58.0928 90.4588 62.2898 88.7204C66.4868 86.9819 70.074 84.0379 72.5978 80.2608C75.1217 76.4836 76.4688 72.0428 76.4688 67.5C76.4688 61.4083 74.0488 55.5661 69.7414 51.2586C65.4339 46.9512 59.5917 44.5313 53.5 44.5312ZM41.9544 63.6259C41.9635 62.8735 42.1942 62.1404 42.6177 61.5183C43.0411 60.8962 43.6385 60.4127 44.3352 60.1282C45.032 59.8438 45.797 59.771 46.5349 59.919C47.2727 60.0669 47.9506 60.4291 48.4838 60.9601C49.0169 61.4912 49.3818 62.1677 49.5326 62.9049C49.6835 63.6422 49.6137 64.4075 49.332 65.1054C49.0503 65.8032 48.5692 66.4025 47.9488 66.8284C47.3284 67.2543 46.5962 67.4879 45.8438 67.5C45.332 67.5082 44.8238 67.4138 44.3492 67.2222C43.8746 67.0306 43.4433 66.7458 43.0807 66.3846C42.7181 66.0234 42.4316 65.5932 42.2381 65.1194C42.0447 64.6455 41.9482 64.1377 41.9544 63.6259ZM63.1928 81.465C63.0636 81.659 62.8882 81.818 62.6824 81.9275C62.4767 82.0371 62.2469 82.0939 62.0138 82.0928C61.6843 82.0946 61.3646 81.9808 61.1103 81.7712C58.9434 80.0276 56.2352 79.0959 53.4541 79.1375C50.673 79.0959 47.9648 80.0276 45.7978 81.7712C45.5435 81.9808 45.2239 82.0946 44.8944 82.0928C44.6625 82.0911 44.4345 82.0322 44.2308 81.9213C44.0272 81.8104 43.854 81.6509 43.7268 81.457C43.5995 81.2631 43.5221 81.0408 43.5014 80.8098C43.4807 80.5788 43.5174 80.3462 43.6081 80.1328C44.386 78.1279 45.7411 76.3987 47.5018 75.164C49.2626 73.9293 51.35 73.2445 53.5 73.1962C55.6395 73.2564 57.7135 73.9468 59.4623 75.1807C61.2111 76.4147 62.5568 78.1373 63.3306 80.1328C63.42 80.3489 63.4542 80.5838 63.4302 80.8163C63.4061 81.0489 63.3245 81.2718 63.1928 81.465ZM61.1563 67.5C60.3991 67.5 59.659 67.2755 59.0295 66.8548C58.3999 66.4342 57.9093 65.8363 57.6195 65.1368C57.3298 64.4373 57.254 63.6676 57.4017 62.925C57.5494 62.1825 57.914 61.5004 58.4494 60.965C58.9847 60.4296 59.6668 60.065 60.4094 59.9173C61.152 59.7696 61.9217 59.8454 62.6212 60.1351C63.3207 60.4249 63.9186 60.9156 64.3392 61.5451C64.7599 62.1746 64.9844 62.9147 64.9844 63.6719C64.9844 64.6872 64.5811 65.6609 63.8632 66.3788C63.1452 67.0967 62.1715 67.5 61.1563 67.5Z"
                  fill="#FFEB02"/>
            <path d="M53.4466 79.6374L53.4541 79.6376L53.4615 79.6374C56.1252 79.5976 58.719 80.4896 60.7947 82.1591C61.1382 82.4411 61.5693 82.5945 62.0136 82.5928C62.3288 82.5939 62.6393 82.517 62.9174 82.3689C63.1955 82.2208 63.4325 82.0063 63.6075 81.7444C63.785 81.4832 63.895 81.182 63.9275 80.8678C63.9599 80.5547 63.9143 80.2384 63.7949 79.9472C62.9852 77.862 61.5784 76.0619 59.7506 74.7722C57.9214 73.4815 55.7519 72.7594 53.5141 72.6964L53.5014 72.6961L53.4888 72.6964C51.2399 72.7468 49.0565 73.4631 47.2148 74.7546C45.3751 76.0447 43.9588 77.8508 43.1447 79.945C43.0241 80.232 42.9756 80.5442 43.0034 80.8544C43.0314 81.1674 43.1363 81.4686 43.3087 81.7313C43.4811 81.9941 43.7158 82.2102 43.9917 82.3604C44.2677 82.5107 44.5765 82.5905 44.8908 82.5928L44.8917 82.5928C45.3371 82.5952 45.7692 82.4418 46.1133 82.1592C48.1891 80.4896 50.783 79.5976 53.4466 79.6374ZM41.017 48.8179C44.712 46.349 49.0561 45.0312 53.5 45.0312C59.4591 45.0312 65.1741 47.3985 69.3878 51.6122C73.6015 55.8259 75.9688 61.5409 75.9688 67.5C75.9688 71.9439 74.651 76.288 72.1821 79.983C69.7132 83.6779 66.2041 86.5578 62.0984 88.2584C57.9928 89.959 53.4751 90.404 49.1166 89.537C44.7581 88.6701 40.7545 86.5301 37.6122 83.3878C34.4699 80.2455 32.33 76.2419 31.463 71.8834C30.596 67.5249 31.041 63.0072 32.7416 58.9016C34.4422 54.796 37.3221 51.2868 41.017 48.8179ZM42.2043 61.2369C41.7256 61.9403 41.4647 62.7691 41.4544 63.6199C41.4474 64.1985 41.5565 64.7726 41.7752 65.3083C41.9939 65.8441 42.3179 66.3305 42.7278 66.7388C43.1378 67.1472 43.6255 67.4692 44.1621 67.6858C44.6987 67.9024 45.2732 68.0092 45.8518 67.9999C46.7025 67.9863 47.5303 67.7221 48.2318 67.2406C48.9332 66.7591 49.4772 66.0815 49.7957 65.2925C50.1142 64.5036 50.1931 63.6382 50.0225 62.8047C49.8519 61.9711 49.4394 61.2063 48.8366 60.6059C48.2338 60.0055 47.4674 59.596 46.6332 59.4287C45.799 59.2614 44.934 59.3437 44.1463 59.6653C43.3586 59.9869 42.6831 60.5336 42.2043 61.2369ZM58.7517 67.2706C59.4634 67.7462 60.3002 68 61.1563 68C62.3042 68 63.405 67.544 64.2167 66.7323C65.0284 65.9206 65.4844 64.8198 65.4844 63.6719C65.4844 62.8159 65.2305 61.9791 64.755 61.2673C64.2794 60.5555 63.6034 60.0008 62.8126 59.6732C62.0217 59.3456 61.1515 59.2599 60.3119 59.4269C59.4723 59.5939 58.7011 60.0061 58.0958 60.6114C57.4905 61.2167 57.0783 61.9879 56.9113 62.8275C56.7443 63.6671 56.83 64.5373 57.1576 65.3282C57.4852 66.119 58.0399 66.795 58.7517 67.2706Z"
                  stroke="url(#paint3_linear_2852_8130)"/>
        </g>
    </g>
    <defs>
        <filter id="filter0_ii_2852_8130" x="6.59766" y="5" width="94.5996" height="122.535"
                filterUnits="userSpaceOnUse" color-interpolation-filters="sRGB">
            <feFlood flood-opacity="0" result="BackgroundImageFix"/>
            <feBlend mode="normal" in="SourceGraphic" in2="BackgroundImageFix" result="shape"/>
            <feColorMatrix in="SourceAlpha" type="matrix" values="0 0 0 0 0 0 0 0 0 0 0 0 0 0 0 0 0 0 127 0"
                           result="hardAlpha"/>
            <feOffset dx="2" dy="2"/>
            <feGaussianBlur stdDeviation="1"/>
            <feComposite in2="hardAlpha" operator="arithmetic" k2="-1" k3="1"/>
            <feColorMatrix type="matrix" values="0 0 0 0 1 0 0 0 0 0.90373 0 0 0 0 0.0373047 0 0 0 0.8 0"/>
            <feBlend mode="normal" in2="shape" result="effect1_innerShadow_2852_8130"/>
            <feColorMatrix in="SourceAlpha" type="matrix" values="0 0 0 0 0 0 0 0 0 0 0 0 0 0 0 0 0 0 127 0"
                           result="hardAlpha"/>
            <feOffset dx="-2" dy="-2"/>
            <feGaussianBlur stdDeviation="5"/>
            <feComposite in2="hardAlpha" operator="arithmetic" k2="-1" k3="1"/>
            <feColorMatrix type="matrix" values="0 0 0 0 1 0 0 0 0 1 0 0 0 0 1 0 0 0 0.8 0"/>
            <feBlend mode="normal" in2="effect1_innerShadow_2852_8130" result="effect2_innerShadow_2852_8130"/>
        </filter>
        <filter id="filter1_f_2852_8130" x="74.6797" y="9.04102" width="28.3848" height="33.6699"
                filterUnits="userSpaceOnUse" color-interpolation-filters="sRGB">
            <feFlood flood-opacity="0" result="BackgroundImageFix"/>
            <feBlend mode="normal" in="SourceGraphic" in2="BackgroundImageFix" result="shape"/>
            <feGaussianBlur stdDeviation="2" result="effect1_foregroundBlur_2852_8130"/>
        </filter>
        <filter id="filter2_ii_2852_8130" x="70.6387" y="5" width="30.4258" height="29.6699"
                filterUnits="userSpaceOnUse" color-interpolation-filters="sRGB">
            <feFlood flood-opacity="0" result="BackgroundImageFix"/>
            <feBlend mode="normal" in="SourceGraphic" in2="BackgroundImageFix" result="shape"/>
            <feColorMatrix in="SourceAlpha" type="matrix" values="0 0 0 0 0 0 0 0 0 0 0 0 0 0 0 0 0 0 127 0"
                           result="hardAlpha"/>
            <feOffset dx="2" dy="2"/>
            <feGaussianBlur stdDeviation="1"/>
            <feComposite in2="hardAlpha" operator="arithmetic" k2="-1" k3="1"/>
            <feColorMatrix type="matrix" values="0 0 0 0 1 0 0 0 0 0.90373 0 0 0 0 0.0373047 0 0 0 0.8 0"/>
            <feBlend mode="normal" in2="shape" result="effect1_innerShadow_2852_8130"/>
            <feColorMatrix in="SourceAlpha" type="matrix" values="0 0 0 0 0 0 0 0 0 0 0 0 0 0 0 0 0 0 127 0"
                           result="hardAlpha"/>
            <feOffset dx="-2" dy="-2"/>
            <feGaussianBlur stdDeviation="5"/>
            <feComposite in2="hardAlpha" operator="arithmetic" k2="-1" k3="1"/>
            <feColorMatrix type="matrix" values="0 0 0 0 1 0 0 0 0 1 0 0 0 0 1 0 0 0 0.7 0"/>
            <feBlend mode="normal" in2="effect1_innerShadow_2852_8130" result="effect2_innerShadow_2852_8130"/>
        </filter>
        <filter id="filter3_di_2852_8130" x="29.5312" y="44.5312" width="49.9375" height="49.9375"
                filterUnits="userSpaceOnUse" color-interpolation-filters="sRGB">
            <feFlood flood-opacity="0" result="BackgroundImageFix"/>
            <feColorMatrix in="SourceAlpha" type="matrix" values="0 0 0 0 0 0 0 0 0 0 0 0 0 0 0 0 0 0 127 0"
                           result="hardAlpha"/>
            <feOffset dx="1" dy="2"/>
            <feGaussianBlur stdDeviation="1"/>
            <feComposite in2="hardAlpha" operator="out"/>
            <feColorMatrix type="matrix" values="0 0 0 0 0.655469 0 0 0 0 0.235969 0 0 0 0 0 0 0 0 1 0"/>
            <feBlend mode="normal" in2="BackgroundImageFix" result="effect1_dropShadow_2852_8130"/>
            <feBlend mode="normal" in="SourceGraphic" in2="effect1_dropShadow_2852_8130" result="shape"/>
            <feColorMatrix in="SourceAlpha" type="matrix" values="0 0 0 0 0 0 0 0 0 0 0 0 0 0 0 0 0 0 127 0"
                           result="hardAlpha"/>
            <feOffset dx="2" dy="2"/>
            <feGaussianBlur stdDeviation="1"/>
            <feComposite in2="hardAlpha" operator="arithmetic" k2="-1" k3="1"/>
            <feColorMatrix type="matrix" values="0 0 0 0 1 0 0 0 0 1 0 0 0 0 1 0 0 0 1 0"/>
            <feBlend mode="normal" in2="shape" result="effect2_innerShadow_2852_8130"/>
        </filter>
        <linearGradient id="paint0_linear_2852_8130" x1="90.5005" y1="2" x2="8.59766" y2="125.535"
                        gradientUnits="userSpaceOnUse">
            <stop stop-color="#FFC500"/>
            <stop offset="1" stop-color="#FF9900"/>
        </linearGradient>
        <linearGradient id="paint1_linear_2852_8130" x1="53.8977" y1="7" x2="53.8977" y2="125.535"
                        gradientUnits="userSpaceOnUse">
            <stop stop-color="white" stop-opacity="0"/>
            <stop offset="1" stop-color="white" stop-opacity="0.8"/>
        </linearGradient>
        <linearGradient id="paint2_linear_2852_8130" x1="76" y1="-3" x2="12.4593" y2="133.782"
                        gradientUnits="userSpaceOnUse">
            <stop stop-color="#F1F1EE" stop-opacity="0"/>
            <stop offset="1" stop-color="#E36D00" stop-opacity="0.72"/>
        </linearGradient>
        <linearGradient id="paint3_linear_2852_8130" x1="53.5" y1="44.5312" x2="53.5" y2="90.4688"
                        gradientUnits="userSpaceOnUse">
            <stop stop-color="white"/>
            <stop offset="1" stop-color="white" stop-opacity="0.8"/>
        </linearGradient>
    </defs>
</svg>
